<?xml version="1.0"?>

<!DOCTYPE svg PUBLIC '-//W3C//DTD SVG 1.0//EN' 'http://www.w3.org/TR/2001/REC-SVG-20010904/DTD/svg10.dtd'>
<svg fill-opacity="1" xmlns:xlink="http://www.w3.org/1999/xlink" color-rendering="auto" color-interpolation="auto" text-rendering="auto" stroke="black" stroke-linecap="square" stroke-miterlimit="10" shape-rendering="auto" stroke-opacity="1" fill="black" stroke-dasharray="none" font-weight="normal" stroke-width="1" xmlns="http://www.w3.org/2000/svg" font-family="&apos;Dialog&apos;" font-style="normal" stroke-linejoin="miter" font-size="12" stroke-dashoffset="0" image-rendering="auto">
  <!--Unicode Character 'GLOBE WITH MERIDIANS' (U+1F310)-->
  <defs id="genericDefs" />
  <g>
    <g>
      <path d="M299.5312 206.1562 Q299.5312 265.7812 257.3438 307.9688 Q215.1562 350.1562 155.5312 350.1562 Q95.9062 350.1562 53.7188 307.9688 Q11.5312 265.7812 11.5312 206.1562 Q11.5312 146.5312 53.7188 104.3438 Q95.9062 62.1562 155.5312 62.1562 Q215.1562 62.1562 257.3438 104.3438 Q299.5312 146.5312 299.5312 206.1562 ZM247.2188 106.0312 Q220.9219 81.9844 186.6094 73.9688 Q203.0625 99.5625 214.1719 128.3906 Q232.4531 118.9688 247.2188 106.0312 ZM291.375 202.0781 Q289.8281 149.625 253.2656 111.7969 Q237.2344 126 217.125 136.125 Q229.3594 171 230.2031 202.0781 L291.375 202.0781 ZM206.5781 131.9062 Q194.2031 99.2812 175.2188 71.7188 Q166.9219 70.4531 159.6094 70.3125 L159.6094 143.8594 Q182.25 142.875 206.5781 131.9062 ZM151.3125 143.8594 L151.3125 70.3125 Q144.1406 70.4531 135.8438 71.7188 Q117 99.2812 104.4844 131.9062 Q128.8125 142.875 151.3125 143.8594 ZM221.9062 202.0781 Q221.0625 172.9688 209.5312 139.7812 Q183.9375 151.1719 159.6094 152.1562 L159.6094 202.0781 L221.9062 202.0781 ZM291.375 210.375 L230.2031 210.375 Q229.3594 241.3125 217.125 276.1875 Q237.2344 286.4531 253.2656 300.5156 Q289.8281 262.8281 291.375 210.375 ZM124.4531 73.9688 Q90.1406 81.9844 63.8438 106.0312 Q78.6094 118.9688 96.8906 128.3906 Q108 99.7031 124.4531 73.9688 ZM151.3125 202.0781 L151.3125 152.1562 Q127.125 151.1719 101.5312 139.7812 Q90 172.9688 89.1562 202.0781 L151.3125 202.0781 ZM221.9062 210.375 L159.6094 210.375 L159.6094 260.1562 Q183.9375 261.1406 209.5312 272.5312 Q221.0625 239.3438 221.9062 210.375 ZM247.2188 306.2812 Q232.4531 293.3438 214.1719 283.9219 Q203.0625 312.6094 186.6094 338.3438 Q220.9219 330.3281 247.2188 306.2812 ZM93.9375 136.125 Q73.8281 125.8594 57.7969 111.7969 Q21.2344 149.4844 19.6875 202.0781 L80.8594 202.0781 Q81.7031 171 93.9375 136.125 ZM151.3125 260.1562 L151.3125 210.375 L89.1562 210.375 Q90 239.3438 101.5312 272.5312 Q127.125 261.1406 151.3125 260.1562 ZM206.5781 280.4062 Q182.25 269.4375 159.6094 268.4531 L159.6094 342 Q166.9219 341.8594 175.2188 340.5938 Q194.0625 313.0312 206.5781 280.4062 ZM151.3125 342 L151.3125 268.4531 Q128.8125 269.4375 104.4844 280.4062 Q116.8594 313.0312 135.8438 340.5938 Q144.1406 341.8594 151.3125 342 ZM93.9375 276.1875 Q81.7031 241.3125 80.8594 210.375 L19.6875 210.375 Q21.2344 262.6875 57.7969 300.5156 Q73.8281 286.4531 93.9375 276.1875 ZM124.4531 338.3438 Q108 312.6094 96.8906 283.9219 Q78.6094 293.3438 63.8438 306.2812 Q90.1406 330.3281 124.4531 338.3438 Z" stroke="none" />
    </g>
  </g>
</svg>
